<?xml version="1.0" encoding="UTF-8" standalone="no"?>
<!DOCTYPE svg PUBLIC "-//W3C//DTD SVG 1.1//EN"
 "http://www.w3.org/Graphics/SVG/1.1/DTD/svg11.dtd">
<!-- Generated by graphviz version 2.43.0 (0)
 -->
<!-- Title: finite_state_machine Pages: 1 -->
<svg width="2776pt" height="871pt"
 viewBox="0.00 0.00 2775.60 871.28" xmlns="http://www.w3.org/2000/svg" xmlns:xlink="http://www.w3.org/1999/xlink">
<g id="graph0" class="graph" transform="scale(1 1) rotate(0) translate(4 867.28)">
<title>finite_state_machine</title>
<polygon fill="white" stroke="transparent" points="-4,4 -4,-867.28 2771.6,-867.28 2771.6,4 -4,4"/>
<!-- STATE_OFF -->
<g id="node1" class="node">
<title>STATE_OFF</title>
<ellipse fill="none" stroke="black" cx="98.5" cy="-389.19" rx="65.78" ry="65.78"/>
<ellipse fill="none" stroke="black" cx="98.5" cy="-389.19" rx="69.79" ry="69.79"/>
<text text-anchor="middle" x="98.5" y="-385.49" font-family="Times,serif" font-size="14.00">STATE_OFF</text>
</g>
<!-- STATE_OFF&#45;&gt;STATE_OFF -->
<g id="edge32" class="edge">
<title>STATE_OFF&#45;&gt;STATE_OFF</title>
<path fill="none" stroke="black" d="M64.04,-449.81C66.31,-465.25 77.79,-476.83 98.5,-476.83 114.52,-476.83 125.02,-469.9 130,-459.62"/>
<polygon fill="black" stroke="black" points="133.42,-460.4 132.96,-449.81 126.72,-458.38 133.42,-460.4"/>
<text text-anchor="middle" x="98.5" y="-480.63" font-family="Times,serif" font-size="14.00">!left and !right and !hazard</text>
</g>
<!-- STATE_FULL -->
<g id="node2" class="node">
<title>STATE_FULL</title>
<ellipse fill="none" stroke="black" cx="499.64" cy="-389.19" rx="71.49" ry="71.49"/>
<text text-anchor="middle" x="499.64" y="-385.49" font-family="Times,serif" font-size="14.00">STATE_FULL</text>
</g>
<!-- STATE_OFF&#45;&gt;STATE_FULL -->
<g id="edge8" class="edge">
<title>STATE_OFF&#45;&gt;STATE_FULL</title>
<path fill="none" stroke="black" d="M168.57,-389.19C237.93,-389.19 344.75,-389.19 417.97,-389.19"/>
<polygon fill="black" stroke="black" points="418.07,-392.69 428.07,-389.19 418.07,-385.69 418.07,-392.69"/>
<text text-anchor="middle" x="284.64" y="-392.99" font-family="Times,serif" font-size="14.00">hazard or (left and right)</text>
</g>
<!-- STATE_LEFT_A -->
<g id="node3" class="node">
<title>STATE_LEFT_A</title>
<ellipse fill="none" stroke="black" cx="2087.39" cy="-380.19" rx="81.49" ry="81.49"/>
<text text-anchor="middle" x="2087.39" y="-376.49" font-family="Times,serif" font-size="14.00">STATE_LEFT_A</text>
</g>
<!-- STATE_OFF&#45;&gt;STATE_LEFT_A -->
<g id="edge16" class="edge">
<title>STATE_OFF&#45;&gt;STATE_LEFT_A</title>
<path fill="none" stroke="black" d="M156.92,-351.03C232.11,-304.84 369.56,-233.19 498.64,-233.19 498.64,-233.19 498.64,-233.19 1781.14,-233.19 1867.9,-233.19 1956.01,-281.99 2015.12,-323.35"/>
<polygon fill="black" stroke="black" points="2013.45,-326.46 2023.63,-329.39 2017.5,-320.75 2013.45,-326.46"/>
<text text-anchor="middle" x="1144.64" y="-236.99" font-family="Times,serif" font-size="14.00">left and !right</text>
</g>
<!-- STATE_RIGHT_A -->
<g id="node6" class="node">
<title>STATE_RIGHT_A</title>
<ellipse fill="none" stroke="black" cx="929.64" cy="-776.19" rx="87.18" ry="87.18"/>
<text text-anchor="middle" x="929.64" y="-772.49" font-family="Times,serif" font-size="14.00">STATE_RIGHT_A</text>
</g>
<!-- STATE_OFF&#45;&gt;STATE_RIGHT_A -->
<g id="edge24" class="edge">
<title>STATE_OFF&#45;&gt;STATE_RIGHT_A</title>
<path fill="none" stroke="black" d="M107.68,-458.36C119.7,-546.98 145.24,-693.24 186.14,-727.19 371.67,-881.21 681.37,-836.68 835.55,-801.26"/>
<polygon fill="black" stroke="black" points="836.53,-804.62 845.48,-798.94 834.94,-797.81 836.53,-804.62"/>
<text text-anchor="middle" x="499.64" y="-838.99" font-family="Times,serif" font-size="14.00">!left and right</text>
</g>
<!-- STATE_FULL&#45;&gt;STATE_OFF -->
<g id="edge1" class="edge">
<title>STATE_FULL&#45;&gt;STATE_OFF</title>
<path fill="none" stroke="black" d="M432.62,-364.17C416.65,-359.21 399.47,-354.74 383.14,-352.19 296.64,-338.67 271.92,-334.64 186.14,-352.19 181.16,-353.21 176.12,-354.52 171.09,-356.05"/>
<polygon fill="black" stroke="black" points="169.87,-352.77 161.48,-359.23 172.07,-359.41 169.87,-352.77"/>
<text text-anchor="middle" x="284.64" y="-355.99" font-family="Times,serif" font-size="14.00">hazard or (left and right)</text>
</g>
<!-- STATE_FULL&#45;&gt;STATE_OFF -->
<g id="edge25" class="edge">
<title>STATE_FULL&#45;&gt;STATE_OFF</title>
<path fill="none" stroke="black" d="M428.87,-400.43C413.83,-402.41 397.99,-404.17 383.14,-405.19 295.8,-411.21 273.34,-413.17 186.14,-405.19 183.12,-404.91 180.04,-404.58 176.94,-404.21"/>
<polygon fill="black" stroke="black" points="177.35,-400.73 166.97,-402.88 176.42,-407.67 177.35,-400.73"/>
<text text-anchor="middle" x="284.64" y="-413.99" font-family="Times,serif" font-size="14.00">!left and !right and !hazard</text>
</g>
<!-- STATE_FULL&#45;&gt;STATE_LEFT_A -->
<g id="edge9" class="edge">
<title>STATE_FULL&#45;&gt;STATE_LEFT_A</title>
<path fill="none" stroke="black" d="M571.03,-383.62C655.8,-377.4 802.54,-368.19 928.64,-368.19 928.64,-368.19 928.64,-368.19 1781.14,-368.19 1853.34,-368.19 1935.06,-371.58 1995.77,-374.76"/>
<polygon fill="black" stroke="black" points="1995.91,-378.27 2006.09,-375.31 1996.29,-371.28 1995.91,-378.27"/>
<text text-anchor="middle" x="1359.64" y="-371.99" font-family="Times,serif" font-size="14.00">left and !right</text>
</g>
<!-- STATE_FULL&#45;&gt;STATE_RIGHT_A -->
<g id="edge17" class="edge">
<title>STATE_FULL&#45;&gt;STATE_RIGHT_A</title>
<path fill="none" stroke="black" d="M523.11,-457.2C541.61,-503.97 572.01,-564.55 616.14,-604.19 686.45,-667.33 731.57,-636.48 813.14,-684.19 827.35,-692.5 841.69,-702.42 855.2,-712.63"/>
<polygon fill="black" stroke="black" points="853.44,-715.69 863.51,-719.01 857.71,-710.14 853.44,-715.69"/>
<text text-anchor="middle" x="714.64" y="-687.99" font-family="Times,serif" font-size="14.00">!left and right</text>
</g>
<!-- STATE_LEFT_A&#45;&gt;STATE_OFF -->
<g id="edge26" class="edge">
<title>STATE_LEFT_A&#45;&gt;STATE_OFF</title>
<path fill="none" stroke="black" d="M2045.75,-310.02C2030.19,-288.41 2010.69,-266.35 1988.14,-251.19 1909.06,-198 1876.45,-195.19 1781.14,-195.19 498.64,-195.19 498.64,-195.19 498.64,-195.19 357.7,-195.19 302.96,-170.32 186.14,-249.19 162.09,-265.43 143.49,-290.81 129.8,-315.52"/>
<polygon fill="black" stroke="black" points="126.58,-314.11 124.97,-324.58 132.76,-317.4 126.58,-314.11"/>
<text text-anchor="middle" x="1144.64" y="-198.99" font-family="Times,serif" font-size="14.00">!left and !right and !hazard</text>
</g>
<!-- STATE_LEFT_A&#45;&gt;STATE_FULL -->
<g id="edge2" class="edge">
<title>STATE_LEFT_A&#45;&gt;STATE_FULL</title>
<path fill="none" stroke="black" d="M2009.82,-355.38C1948.62,-337.75 1860.28,-317.19 1781.14,-317.19 928.64,-317.19 928.64,-317.19 928.64,-317.19 788.79,-317.19 753.04,-325.58 616.14,-354.19 603.48,-356.84 590.2,-360.24 577.35,-363.89"/>
<polygon fill="black" stroke="black" points="576.24,-360.57 567.61,-366.72 578.19,-367.29 576.24,-360.57"/>
<text text-anchor="middle" x="1359.64" y="-320.99" font-family="Times,serif" font-size="14.00">hazard or (left and right)</text>
</g>
<!-- STATE_LEFT_B -->
<g id="node4" class="node">
<title>STATE_LEFT_B</title>
<ellipse fill="none" stroke="black" cx="2386.87" cy="-271.19" rx="81.49" ry="81.49"/>
<text text-anchor="middle" x="2386.87" y="-267.49" font-family="Times,serif" font-size="14.00">STATE_LEFT_B</text>
</g>
<!-- STATE_LEFT_A&#45;&gt;STATE_LEFT_B -->
<g id="edge10" class="edge">
<title>STATE_LEFT_A&#45;&gt;STATE_LEFT_B</title>
<path fill="none" stroke="black" d="M2163.84,-352.54C2205.53,-337.27 2257.46,-318.24 2300.61,-302.43"/>
<polygon fill="black" stroke="black" points="2302.06,-305.63 2310.24,-298.9 2299.65,-299.05 2302.06,-305.63"/>
<text text-anchor="middle" x="2237.13" y="-344.99" font-family="Times,serif" font-size="14.00">left and !right</text>
</g>
<!-- STATE_LEFT_A&#45;&gt;STATE_RIGHT_A -->
<g id="edge18" class="edge">
<title>STATE_LEFT_A&#45;&gt;STATE_RIGHT_A</title>
<path fill="none" stroke="black" d="M2065.15,-458.38C2049.5,-505.49 2024.54,-564.6 1988.14,-608.19 1947.45,-656.92 1927.47,-662.13 1869.14,-687.19 1787.03,-722.48 1761.62,-719.5 1673.14,-732.19 1443.07,-765.18 1169.46,-773.53 1027.28,-775.58"/>
<polygon fill="black" stroke="black" points="1026.81,-772.09 1016.86,-775.72 1026.91,-779.09 1026.81,-772.09"/>
<text text-anchor="middle" x="1574.64" y="-756.99" font-family="Times,serif" font-size="14.00">!left and right</text>
</g>
<!-- STATE_LEFT_B&#45;&gt;STATE_OFF -->
<g id="edge27" class="edge">
<title>STATE_LEFT_B&#45;&gt;STATE_OFF</title>
<path fill="none" stroke="black" d="M2311.55,-239.95C2232.79,-208.37 2104.04,-161.07 1988.14,-138.19 1620.57,-65.62 1520.31,-109.19 1145.64,-109.19 498.64,-109.19 498.64,-109.19 498.64,-109.19 355.39,-109.19 295.19,-95.28 186.14,-188.19 149.52,-219.4 127.92,-268.92 115.46,-310.99"/>
<polygon fill="black" stroke="black" points="112.07,-310.1 112.7,-320.68 118.8,-312.01 112.07,-310.1"/>
<text text-anchor="middle" x="1359.64" y="-111.99" font-family="Times,serif" font-size="14.00">!left and !right and !hazard</text>
</g>
<!-- STATE_LEFT_B&#45;&gt;STATE_FULL -->
<g id="edge3" class="edge">
<title>STATE_LEFT_B&#45;&gt;STATE_FULL</title>
<path fill="none" stroke="black" d="M2305.38,-271.19C2245.53,-271.19 2161.85,-271.19 2088.39,-271.19 928.64,-271.19 928.64,-271.19 928.64,-271.19 788.32,-271.19 747.8,-267.63 616.14,-316.19 599.06,-322.49 581.83,-331.58 566.08,-341.22"/>
<polygon fill="black" stroke="black" points="564.1,-338.33 557.5,-346.61 567.83,-344.25 564.1,-338.33"/>
<text text-anchor="middle" x="1574.64" y="-274.99" font-family="Times,serif" font-size="14.00">hazard or (left and right)</text>
</g>
<!-- STATE_LEFT_C -->
<g id="node5" class="node">
<title>STATE_LEFT_C</title>
<ellipse fill="none" stroke="black" cx="2686.36" cy="-152.19" rx="81.49" ry="81.49"/>
<text text-anchor="middle" x="2686.36" y="-148.49" font-family="Times,serif" font-size="14.00">STATE_LEFT_C</text>
</g>
<!-- STATE_LEFT_B&#45;&gt;STATE_LEFT_C -->
<g id="edge11" class="edge">
<title>STATE_LEFT_B&#45;&gt;STATE_LEFT_C</title>
<path fill="none" stroke="black" d="M2462.56,-241.31C2504.73,-224.44 2557.56,-203.31 2601.19,-185.86"/>
<polygon fill="black" stroke="black" points="2602.66,-189.04 2610.64,-182.08 2600.06,-182.54 2602.66,-189.04"/>
<text text-anchor="middle" x="2536.62" y="-233.99" font-family="Times,serif" font-size="14.00">left and !right</text>
</g>
<!-- STATE_LEFT_B&#45;&gt;STATE_RIGHT_A -->
<g id="edge19" class="edge">
<title>STATE_LEFT_B&#45;&gt;STATE_RIGHT_A</title>
<path fill="none" stroke="black" d="M2377.8,-351.99C2357.99,-500.81 2292.62,-803.19 2088.39,-803.19 1358.64,-803.19 1358.64,-803.19 1358.64,-803.19 1244.41,-803.19 1113.37,-793.49 1026.7,-785.72"/>
<polygon fill="black" stroke="black" points="1026.9,-782.22 1016.62,-784.81 1026.26,-789.19 1026.9,-782.22"/>
<text text-anchor="middle" x="1780.14" y="-806.99" font-family="Times,serif" font-size="14.00">!left and right</text>
</g>
<!-- STATE_LEFT_C&#45;&gt;STATE_OFF -->
<g id="edge12" class="edge">
<title>STATE_LEFT_C&#45;&gt;STATE_OFF</title>
<path fill="none" stroke="black" d="M2612.59,-117.52C2553.44,-92.54 2467.12,-63.19 2387.87,-63.19 498.64,-63.19 498.64,-63.19 498.64,-63.19 358.51,-63.19 292.95,-14.47 186.14,-105.19 127.22,-155.24 107.6,-244.12 101.45,-309.15"/>
<polygon fill="black" stroke="black" points="97.94,-309.12 100.58,-319.38 104.92,-309.71 97.94,-309.12"/>
<text text-anchor="middle" x="1574.64" y="-66.99" font-family="Times,serif" font-size="14.00">left and !right</text>
</g>
<!-- STATE_LEFT_C&#45;&gt;STATE_OFF -->
<g id="edge28" class="edge">
<title>STATE_LEFT_C&#45;&gt;STATE_OFF</title>
<path fill="none" stroke="black" d="M2626.48,-97.22C2614.14,-87.8 2600.73,-78.89 2587.12,-72.19 2505.49,-32 2478.86,-25.19 2387.87,-25.19 498.64,-25.19 498.64,-25.19 498.64,-25.19 359.44,-25.19 293.04,42.98 186.14,-46.19 146.14,-79.56 121.11,-219.32 108.77,-309.82"/>
<polygon fill="black" stroke="black" points="105.29,-309.4 107.44,-319.78 112.23,-310.33 105.29,-309.4"/>
<text text-anchor="middle" x="1574.64" y="-28.99" font-family="Times,serif" font-size="14.00">!left and !right and !hazard</text>
</g>
<!-- STATE_LEFT_C&#45;&gt;STATE_FULL -->
<g id="edge4" class="edge">
<title>STATE_LEFT_C&#45;&gt;STATE_FULL</title>
<path fill="none" stroke="black" d="M2604.87,-152.19C2545.01,-152.19 2461.34,-152.19 2387.87,-152.19 928.64,-152.19 928.64,-152.19 928.64,-152.19 780.5,-152.19 739.9,-186.75 616.14,-268.19 592.38,-283.83 569.89,-305.22 551.18,-325.67"/>
<polygon fill="black" stroke="black" points="548.54,-323.37 544.46,-333.15 553.74,-328.05 548.54,-323.37"/>
<text text-anchor="middle" x="1780.14" y="-155.99" font-family="Times,serif" font-size="14.00">hazard or (left and right)</text>
</g>
<!-- STATE_LEFT_C&#45;&gt;STATE_RIGHT_A -->
<g id="edge20" class="edge">
<title>STATE_LEFT_C&#45;&gt;STATE_RIGHT_A</title>
<path fill="none" stroke="black" d="M2668.91,-231.8C2628.95,-414.09 2520.27,-846.19 2387.87,-846.19 1358.64,-846.19 1358.64,-846.19 1358.64,-846.19 1218.73,-846.19 1183.39,-835.39 1046.14,-808.19 1038.61,-806.7 1030.85,-804.97 1023.08,-803.1"/>
<polygon fill="black" stroke="black" points="1023.8,-799.68 1013.25,-800.68 1022.12,-806.47 1023.8,-799.68"/>
<text text-anchor="middle" x="1937.64" y="-849.99" font-family="Times,serif" font-size="14.00">!left and right</text>
</g>
<!-- STATE_RIGHT_A&#45;&gt;STATE_OFF -->
<g id="edge29" class="edge">
<title>STATE_RIGHT_A&#45;&gt;STATE_OFF</title>
<path fill="none" stroke="black" d="M842.63,-769.08C657.81,-753.08 235.47,-712.31 186.14,-670.19 128.2,-620.71 108.37,-533.4 101.91,-469.19"/>
<polygon fill="black" stroke="black" points="105.38,-468.74 100.98,-459.1 98.41,-469.38 105.38,-468.74"/>
<text text-anchor="middle" x="499.64" y="-747.99" font-family="Times,serif" font-size="14.00">!left and !right and !hazard</text>
</g>
<!-- STATE_RIGHT_A&#45;&gt;STATE_FULL -->
<g id="edge5" class="edge">
<title>STATE_RIGHT_A&#45;&gt;STATE_FULL</title>
<path fill="none" stroke="black" d="M863.42,-719.52C851.13,-706.09 839.53,-691.02 831.14,-675.19 812.87,-640.68 839.43,-618.07 813.14,-589.19 751.45,-521.41 692.36,-579.1 616.14,-528.19 588.48,-509.71 563.92,-482.7 544.64,-457.39"/>
<polygon fill="black" stroke="black" points="547.35,-455.17 538.56,-449.24 541.74,-459.35 547.35,-455.17"/>
<text text-anchor="middle" x="714.64" y="-592.99" font-family="Times,serif" font-size="14.00">hazard or (left and right)</text>
</g>
<!-- STATE_RIGHT_A&#45;&gt;STATE_LEFT_A -->
<g id="edge13" class="edge">
<title>STATE_RIGHT_A&#45;&gt;STATE_LEFT_A</title>
<path fill="none" stroke="black" d="M1013.13,-750.45C1024.15,-747.65 1035.37,-745.12 1046.14,-743.19 1321.24,-693.88 1396.45,-734.55 1673.14,-695.19 1761.25,-682.66 1791.82,-698.25 1869.14,-654.19 1947.35,-609.63 2007.85,-524.77 2044.91,-461.24"/>
<polygon fill="black" stroke="black" points="2048.02,-462.84 2049.98,-452.42 2041.96,-459.34 2048.02,-462.84"/>
<text text-anchor="middle" x="1574.64" y="-716.99" font-family="Times,serif" font-size="14.00">left and !right</text>
</g>
<!-- STATE_RIGHT_B -->
<g id="node7" class="node">
<title>STATE_RIGHT_B</title>
<ellipse fill="none" stroke="black" cx="1359.64" cy="-527.19" rx="87.99" ry="87.99"/>
<text text-anchor="middle" x="1359.64" y="-523.49" font-family="Times,serif" font-size="14.00">STATE_RIGHT_B</text>
</g>
<!-- STATE_RIGHT_A&#45;&gt;STATE_RIGHT_B -->
<g id="edge21" class="edge">
<title>STATE_RIGHT_A&#45;&gt;STATE_RIGHT_B</title>
<path fill="none" stroke="black" d="M998.7,-722.73C1013.99,-711.51 1030.37,-700.09 1046.14,-690.19 1119.26,-644.31 1206.68,-599.5 1270.44,-568.51"/>
<polygon fill="black" stroke="black" points="1272.2,-571.55 1279.68,-564.04 1269.15,-565.25 1272.2,-571.55"/>
<text text-anchor="middle" x="1144.64" y="-693.99" font-family="Times,serif" font-size="14.00">!left and right</text>
</g>
<!-- STATE_RIGHT_B&#45;&gt;STATE_OFF -->
<g id="edge30" class="edge">
<title>STATE_RIGHT_B&#45;&gt;STATE_OFF</title>
<path fill="none" stroke="black" d="M1271.84,-525.52C1103.37,-521.48 720.58,-508.43 401.14,-469.19 304.67,-457.34 278.76,-458.68 186.14,-429.19 181.01,-427.56 175.79,-425.69 170.58,-423.68"/>
<polygon fill="black" stroke="black" points="171.82,-420.41 161.23,-419.93 169.21,-426.91 171.82,-420.41"/>
<text text-anchor="middle" x="714.64" y="-508.99" font-family="Times,serif" font-size="14.00">!left and !right and !hazard</text>
</g>
<!-- STATE_RIGHT_B&#45;&gt;STATE_FULL -->
<g id="edge6" class="edge">
<title>STATE_RIGHT_B&#45;&gt;STATE_FULL</title>
<path fill="none" stroke="black" d="M1275.43,-502.44C1264.63,-499.73 1253.67,-497.22 1243.14,-495.19 967.83,-442.03 890.58,-482.73 616.14,-425.19 603.45,-422.53 590.16,-419.06 577.3,-415.32"/>
<polygon fill="black" stroke="black" points="578.14,-411.92 567.56,-412.42 576.14,-418.63 578.14,-411.92"/>
<text text-anchor="middle" x="929.64" y="-469.99" font-family="Times,serif" font-size="14.00">hazard or (left and right)</text>
</g>
<!-- STATE_RIGHT_B&#45;&gt;STATE_LEFT_A -->
<g id="edge14" class="edge">
<title>STATE_RIGHT_B&#45;&gt;STATE_LEFT_A</title>
<path fill="none" stroke="black" d="M1444.44,-504.42C1511,-486.82 1606.61,-462.6 1691.14,-445.19 1795.33,-423.73 1916.11,-404.71 1996.47,-392.88"/>
<polygon fill="black" stroke="black" points="1997.17,-396.31 2006.55,-391.4 1996.15,-389.39 1997.17,-396.31"/>
<text text-anchor="middle" x="1780.14" y="-448.99" font-family="Times,serif" font-size="14.00">left and !right</text>
</g>
<!-- STATE_RIGHT_C -->
<g id="node8" class="node">
<title>STATE_RIGHT_C</title>
<ellipse fill="none" stroke="black" cx="1780.14" cy="-557.19" rx="87.99" ry="87.99"/>
<text text-anchor="middle" x="1780.14" y="-553.49" font-family="Times,serif" font-size="14.00">STATE_RIGHT_C</text>
</g>
<!-- STATE_RIGHT_B&#45;&gt;STATE_RIGHT_C -->
<g id="edge22" class="edge">
<title>STATE_RIGHT_B&#45;&gt;STATE_RIGHT_C</title>
<path fill="none" stroke="black" d="M1447.36,-533.41C1515.82,-538.31 1611.29,-545.16 1682.26,-550.24"/>
<polygon fill="black" stroke="black" points="1682.32,-553.76 1692.54,-550.98 1682.82,-546.78 1682.32,-553.76"/>
<text text-anchor="middle" x="1574.64" y="-551.99" font-family="Times,serif" font-size="14.00">!left and right</text>
</g>
<!-- STATE_RIGHT_C&#45;&gt;STATE_OFF -->
<g id="edge23" class="edge">
<title>STATE_RIGHT_C&#45;&gt;STATE_OFF</title>
<path fill="none" stroke="black" d="M1695.07,-579.69C1630.75,-595.69 1539.55,-615.78 1458.14,-624.19 1371.05,-633.18 1348.45,-630.77 1261.14,-624.19 1200.91,-619.65 241.25,-485.93 186.14,-461.19 175.93,-456.61 165.95,-450.47 156.62,-443.71"/>
<polygon fill="black" stroke="black" points="158.67,-440.88 148.59,-437.63 154.45,-446.46 158.67,-440.88"/>
<text text-anchor="middle" x="929.64" y="-596.99" font-family="Times,serif" font-size="14.00">!left and right</text>
</g>
<!-- STATE_RIGHT_C&#45;&gt;STATE_OFF -->
<g id="edge31" class="edge">
<title>STATE_RIGHT_C&#45;&gt;STATE_OFF</title>
<path fill="none" stroke="black" d="M1705.61,-603.78C1695.02,-609.01 1684.02,-613.7 1673.14,-617.19 1581.65,-646.58 1554.1,-634.92 1458.14,-640.19 829.53,-674.69 684.08,-653.63 616.14,-642.19 416.69,-608.61 352.52,-608.21 186.14,-493.19 170.89,-482.65 156.81,-468.73 144.63,-454.51"/>
<polygon fill="black" stroke="black" points="147.15,-452.06 138.06,-446.6 141.76,-456.53 147.15,-452.06"/>
<text text-anchor="middle" x="929.64" y="-661.99" font-family="Times,serif" font-size="14.00">!left and !right and !hazard</text>
</g>
<!-- STATE_RIGHT_C&#45;&gt;STATE_FULL -->
<g id="edge7" class="edge">
<title>STATE_RIGHT_C&#45;&gt;STATE_FULL</title>
<path fill="none" stroke="black" d="M1701.63,-518.01C1638,-487.95 1544.61,-448.6 1458.14,-430.19 1291.79,-394.77 780.46,-389.78 581.26,-389.2"/>
<polygon fill="black" stroke="black" points="581.17,-385.7 571.16,-389.17 581.15,-392.7 581.17,-385.7"/>
<text text-anchor="middle" x="1144.64" y="-408.99" font-family="Times,serif" font-size="14.00">hazard or (left and right)</text>
</g>
<!-- STATE_RIGHT_C&#45;&gt;STATE_LEFT_A -->
<g id="edge15" class="edge">
<title>STATE_RIGHT_C&#45;&gt;STATE_LEFT_A</title>
<path fill="none" stroke="black" d="M1859.75,-519.85C1899.04,-500.37 1946.88,-475.38 1988.14,-450.19 1996.46,-445.12 2004.99,-439.57 2013.39,-433.91"/>
<polygon fill="black" stroke="black" points="2015.45,-436.74 2021.73,-428.2 2011.5,-430.96 2015.45,-436.74"/>
<text text-anchor="middle" x="1937.64" y="-508.99" font-family="Times,serif" font-size="14.00">left and !right</text>
</g>
</g>
</svg>
